<svg width="206" height="126" viewBox="0 0 206 126" fill="none" xmlns="http://www.w3.org/2000/svg">
	<g clip-path="url(#clip0)">
		<g opacity="0.5">
			<path opacity="0.5" d="M205.746 0H122.763V81.3155H205.746V0Z" fill="url(#paint0_linear)" />
		</g>
		<path d="M205.33 7H123.18V87.0643H205.33V7Z" fill="white" />
		<g opacity="0.5">
			<path opacity="0.5" d="M196.99 13.6481H131.521V64.4729H196.99V13.6481Z" fill="#F37A39" />
		</g>
		<g opacity="0.5">
			<path opacity="0.5" d="M176.656 48.6476C176.62 46.6428 175.801 44.7316 174.374 43.3231C173.088 42.0604 171.36 40.6113 169.486 39.7347H169.475C168.682 39.3485 167.832 39.0917 166.957 38.974V35.863C167.596 35.2906 168.124 34.6053 168.515 33.8415V34.0906C168.515 34.0906 171.498 31.0766 171.43 27.5395C171.474 25.4154 170.452 23.0783 167.028 21.074C159.075 16.434 156.029 23.181 155.449 24.7422C155.411 24.8178 155.383 24.8976 155.365 24.9799L155.342 25.0522C155.332 25.1254 155.332 25.1996 155.342 25.2728V25.2956C155.34 25.3349 155.34 25.3743 155.342 25.4135C155.342 25.9346 155.785 26.4138 156.536 26.8055C155.946 27.687 155.565 28.6919 155.423 29.7432C155.28 30.7946 155.38 31.8646 155.715 32.8714C156.05 33.8782 156.61 34.7951 157.354 35.5519C158.097 36.3087 159.004 36.8854 160.005 37.2378V39.2346L159.851 38.9436C159.851 38.9436 158.788 39.5806 157.417 40.5581C155.12 42.1954 151.955 44.7892 151.48 46.9323C150.719 50.3553 151.48 64.8419 151.48 64.8419L176.973 65.2222L176.656 48.6476ZM168.553 33.8168L168.562 33.8073L168.553 33.8168ZM155.409 25.5219V25.5333V25.5219ZM155.456 25.6341V25.6493V25.6341ZM155.517 25.7444L155.528 25.7634L155.517 25.7444ZM155.591 25.8528L155.606 25.8737L155.591 25.8528ZM155.679 25.9593L155.7 25.9821L155.679 25.9593ZM155.779 26.0639L155.804 26.0886L155.779 26.0639ZM156.643 26.6344L156.669 26.6477L156.643 26.6344ZM155.894 26.1609L155.924 26.1875L155.894 26.1609ZM156.019 26.2616L156.055 26.2883L156.019 26.2616ZM156.158 26.3586L156.2 26.3872L156.158 26.3586ZM156.308 26.4537L156.358 26.4822L156.308 26.4537ZM156.47 26.545L156.525 26.5754L156.47 26.545Z" fill="url(#paint1_linear)" />
		</g>
		<path d="M166.883 35.958H160.115V45.8845H166.883V35.958Z" fill="#FDA57D" />
		<path opacity="0.05" d="M160.34 31.1619C161.047 31.413 161.351 31.6126 162.144 31.6126C163.811 31.6129 165.419 30.9949 166.657 29.8783V29.808H160.34V31.1619Z" fill="black" />
		<path d="M162.371 37.7626C166.108 37.7626 169.139 34.7325 169.139 30.9947C169.139 27.2569 166.108 24.2268 162.371 24.2268C158.633 24.2268 155.603 27.2569 155.603 30.9947C155.603 34.7325 158.633 37.7626 162.371 37.7626Z" fill="#FDA57D" />
		<path d="M161.625 27.9446C164.966 27.9446 167.674 26.9152 167.674 25.6455C167.674 24.3758 164.966 23.3464 161.625 23.3464C158.284 23.3464 155.576 24.3758 155.576 25.6455C155.576 26.9152 158.284 27.9446 161.625 27.9446Z" fill="black" />
		<path d="M162.835 26.4936L168.399 29.8804V34.064C168.399 34.064 175.657 26.7275 166.948 21.6482C158.238 16.569 155.576 25.5199 155.576 25.5199C155.576 25.5199 157.995 27.4615 162.835 26.4936Z" fill="black" />
		<path d="M168.655 32.1224C169.029 32.1224 169.332 31.6175 169.332 30.9947C169.332 30.3719 169.029 29.8671 168.655 29.8671C168.281 29.8671 167.978 30.3719 167.978 30.9947C167.978 31.6175 168.281 32.1224 168.655 32.1224Z" fill="#FDA57D" />
		<g opacity="0.05">
			<path opacity="0.05" d="M168.399 23.506L164.694 21.2525C163.688 21.469 162.662 21.5754 161.633 21.5701C158.381 21.5701 155.738 20.5946 155.591 19.3718V19.3927C155.589 19.4307 155.589 19.4688 155.591 19.5068C155.591 20.7771 158.299 21.8059 161.64 21.8059C162.672 21.8119 163.702 21.7054 164.711 21.4883L168.414 23.7418L168.399 23.506Z" fill="black" />
			<path opacity="0.05" d="M168.399 27.6972V27.9387C168.399 27.9387 171.299 25.0064 171.232 21.5645C171.164 24.8999 168.399 27.6972 168.399 27.6972Z" fill="black" />
		</g>
		<path d="M159.963 39.0348C159.963 39.0348 152.558 43.477 151.818 46.8086C151.079 50.1403 151.818 64.2352 151.818 64.2352L176.623 64.606L176.307 48.4764C176.272 46.5247 175.473 44.6646 174.083 43.2944C172.23 41.4746 169.429 39.2516 166.626 39.0348L163.295 45.3292L159.963 39.0348Z" fill="#4D8AF0" />
		<path opacity="0.05" d="M156.544 46.5748C156.544 46.5748 154.608 56.7352 156.302 59.8862L156.544 46.5748Z" fill="black" />
		<path opacity="0.05" d="M170.57 46.5748C170.57 46.5748 172.506 56.7352 170.812 59.8862L170.57 46.5748Z" fill="black" />
		<path d="M159.931 39.0729L166.961 38.974L162.352 50.6861L159.931 39.0729Z" fill="white" />
		<path d="M159.931 38.3485V39.073H166.948L166.961 38.3485H159.931Z" fill="white" />
		<path d="M163.802 38.3485H162.834V39.3164H163.802V38.3485Z" fill="black" />
		<path d="M159.93 40L158.479 41.4528L161.625 46.8116L159.93 40Z" fill="#4D8AF0" />
		<path d="M166.704 40.4849L167.915 41.6943L164.285 46.532L166.704 40.4849Z" fill="#4D8AF0" />
		<path opacity="0.1" d="M159.93 39.0729L158.479 40.5257L161.625 45.8845L159.93 39.0729Z" fill="white" />
		<path opacity="0.1" d="M166.704 39.5577L167.915 40.7672L164.285 45.6049L166.704 39.5577Z" fill="white" />
		<path d="M163.318 38.8314L159.448 55.1474L161.867 58.7757L165.012 55.1474L163.318 38.8314Z" fill="black" />
		<path d="M193.956 71.6117H136.147V74.274H193.956V71.6117Z" fill="#E0E0E0" />
		<path d="M184.734 76.9362H145.37V79.5984H184.734V76.9362Z" fill="#E0E0E0" />
		<g opacity="0.5">
			<path opacity="0.5" d="M82.9828 21.7773H-0.000488281V103.093H82.9828V21.7773Z" fill="url(#paint2_linear)" />
		</g>
		<path d="M82.5669 22.4031H0.416504V102.467H82.5669V22.4031Z" fill="white" />
		<g opacity="0.5">
			<path opacity="0.5" d="M74.2261 29.0511H8.75684V79.876H74.2261V29.0511Z" fill="#F37A39" />
		</g>
		<g opacity="0.5">
			<path opacity="0.5" d="M56.6971 70.3888H57.7544L57.4236 67.0039H57.3874C57.589 64.9349 57.8914 55.7672 48.0352 52.1142L47.1548 51.5342L47.0882 51.5931V49.1191C47.7387 48.5404 48.277 47.8468 48.6761 47.0729V47.3259C49.5432 46.3908 50.2615 45.3281 50.8059 44.1749C50.2953 45.1346 49.6611 46.0233 48.9195 46.8181V46.7953C50.1574 45.3824 55.2196 38.8237 47.1529 34.1171C38.0669 28.8173 36.3516 37.7093 36.3516 37.7093L37.0761 38.6792C37.0761 38.6792 35.3171 42.201 35.3171 43.863C35.3176 45.3228 35.7704 46.7465 36.6132 47.9384C37.4561 49.1303 38.6475 50.0317 40.0237 50.5187V52.6295C39.3676 52.8691 30.2493 56.3966 30.2493 67.002L28.979 70.3869L29.4031 70.5771V80.0111H50.1308C50.1308 80.0111 51.4011 69.9609 50.977 66.576L52.2473 67.4223V70.385H52.5288V70.4592H52.447L52.5288 70.733V79.8H56.6895V70.7368L56.7371 70.463H56.6895L56.6971 70.3888ZM33.1816 71.1647L33.212 70.3888L33.1816 71.1647Z" fill="url(#paint3_linear)" />
		</g>
		<path d="M46.932 49.3529H40.1641V59.2794H46.932V49.3529Z" fill="#FDA57D" />
		<path opacity="0.05" d="M40.3906 50.9314C41.098 51.1824 41.4023 51.382 42.1953 51.382C43.8623 51.3824 45.4702 50.7645 46.7078 49.6478V49.5774H40.3906V50.9314Z" fill="black" />
		<path d="M42.4217 51.1576C46.1595 51.1576 49.1896 48.1275 49.1896 44.3897C49.1896 40.6519 46.1595 37.6218 42.4217 37.6218C38.6839 37.6218 35.6538 40.6519 35.6538 44.3897C35.6538 48.1275 38.6839 51.1576 42.4217 51.1576Z" fill="#FDA57D" />
		<path d="M42.8834 41.098L48.4476 43.2753V47.4589C48.4476 47.4589 55.7118 40.1319 46.9966 35.047C39.1657 30.4831 37.7471 35.9807 36.7621 37.038C36.7391 37.0625 36.7212 37.0914 36.7095 37.1228C36.6977 37.1543 36.6923 37.1878 36.6935 37.2214C36.6948 37.255 36.7026 37.288 36.7167 37.3185C36.7307 37.3491 36.7507 37.3765 36.7754 37.3993C37.7433 38.3102 38.5705 41.9613 42.8834 41.098Z" fill="#4D4545" />
		<path d="M56.1435 69.8145H52.1558V79.7505H56.1435V69.8145Z" fill="#FDA57D" />
		<path d="M51.8857 66.9753V69.8144H57.1571L56.8357 66.5703L51.8857 66.9753Z" fill="white" />
		<path d="M29.9849 69.8145V79.9539H33.229L33.6056 70.558L29.9849 69.8145Z" fill="#FDA57D" />
		<path d="M42.5562 55.6208L40.2019 52.7817C40.2019 52.7817 30.8003 56.0258 30.8003 66.5704L33.6394 69.8145L33.2344 79.954H49.8622C49.8622 79.954 51.0793 69.4095 50.6742 66.1653L51.8913 66.9773H56.7575C56.7575 66.9773 58.6287 55.6208 46.8691 51.9716L42.5562 55.6208Z" fill="#235067" />
		<path d="M30.7947 66.5703L29.5796 69.8144L33.5616 71.64L33.6339 69.8144L30.7947 66.5703Z" fill="white" />
		<path opacity="0.05" d="M38.5308 53.9187L40.1243 57.4843L42.4006 55.6131L40.2023 53.0231L38.5308 53.9187Z" fill="black" />
		<path d="M38.5308 53.6772L40.1243 57.2408L42.4006 55.3715L40.2023 52.7815L38.5308 53.6772Z" fill="white" />
		<path opacity="0.05" d="M46.9969 51.9847L48.4478 52.9527L44.3365 56.8225L42.897 55.5731L46.9969 51.9847Z" fill="black" />
		<path d="M46.9969 51.7433L48.4478 52.7093L44.3365 56.581L42.897 55.3317L46.9969 51.7433Z" fill="white" />
		<path opacity="0.05" d="M33.9321 68.9188C33.9277 65.7772 34.9471 62.7197 36.8359 60.2094L33.9321 68.9188Z" fill="black" />
		<path opacity="0.05" d="M50.1421 66.5V65.0471L51.593 66.015L50.6251 65.7735L50.1421 66.5Z" fill="black" />
		<path opacity="0.05" d="M52.0781 69.8867L52.1561 70.1472H56.1438L56.1895 69.8867H52.0781Z" fill="black" />
		<path opacity="0.05" d="M29.9849 70.0008V70.2784L33.5409 71.8054L33.4496 71.5791L29.9849 70.0008Z" fill="black" />
		<path opacity="0.05" d="M50.4977 44.6901C50.0087 45.6097 49.4014 46.4613 48.6911 47.2231V43.0338L43.127 40.8564C38.9567 41.6912 38.2987 38.3368 37.1292 37.2623C37.0792 37.2167 37.0131 37.1927 36.9454 37.1955C36.8778 37.1984 36.814 37.2279 36.7679 37.2776C36.745 37.3021 36.7271 37.331 36.7153 37.3624C36.7036 37.3939 36.6982 37.4274 36.6994 37.461C36.7006 37.4946 36.7085 37.5276 36.7225 37.5581C36.7366 37.5886 36.7565 37.6161 36.7812 37.6389C37.7511 38.5479 38.5764 42.2028 42.8912 41.3356L48.4553 43.513V47.6966C49.2856 46.8046 49.9744 45.7907 50.4977 44.6901Z" fill="black" />
		<path d="M48.7043 45.5174C49.0782 45.5174 49.3813 45.0125 49.3813 44.3897C49.3813 43.767 49.0782 43.2621 48.7043 43.2621C48.3304 43.2621 48.0273 43.767 48.0273 44.3897C48.0273 45.0125 48.3304 45.5174 48.7043 45.5174Z" fill="#FDA57D" />
		<path d="M69.02 85.965H11.2104V88.6273H69.02V85.965Z" fill="#E0E0E0" />
		<path d="M59.7968 91.2895H20.4331V93.9518H59.7968V91.2895Z" fill="#E0E0E0" />
		<g opacity="0.5">
			<path opacity="0.5" d="M144.777 44.6846H61.7935V126H144.777V44.6846Z" fill="url(#paint4_linear)" />
		</g>
		<path d="M144.36 45.3101H62.2095V125.374H144.36V45.3101Z" fill="white" />
		<g opacity="0.5">
			<path opacity="0.5" d="M136.02 51.9601H70.5503V102.785H136.02V51.9601Z" fill="#F37A39" />
		</g>
		<g opacity="0.5">
			<path opacity="0.5" d="M109.054 83.6868L109.245 83.5442L109.516 83.3426L122.212 73.9124L117.848 56.4574C117.848 56.4574 117.848 56.4364 117.848 56.4003C117.884 55.8679 118.087 51.747 115.86 52.4906C113.685 53.2151 114.491 56.2596 114.647 56.7768L114.672 56.8529L117.448 71.5316L108.625 76.6774L107.4 76.5405C108.796 74.6261 109.536 72.3127 109.513 69.9437C109.513 64.467 105.784 60.0267 101.182 60.0267C96.5797 60.0267 92.8506 64.467 92.8506 69.9437C92.8506 74.0455 94.9424 77.5673 97.926 79.0715L94.7674 80.6518V80.6689C93.8623 80.4787 90.4279 80.5358 91.8199 93.1398C92.1616 96.1932 91.4352 99.2708 89.7643 101.849L88.8933 103.061L110.638 103.194H110.705C110.705 103.194 107.626 98.259 109.054 83.6868Z" fill="url(#paint5_linear)" />
		</g>
		<path d="M95.1517 80.7564C95.1517 80.7564 90.6638 78.8187 91.9722 92.1358C92.3274 95.6862 91.4644 99.2518 89.5248 102.247L89.249 102.671H93.4212L96.5627 99.3429L95.1517 80.7564Z" fill="#3AD29F" />
		<path d="M117.563 56.9576C117.563 56.9576 117.563 56.9386 117.563 56.9025L114.425 57.2714L114.448 57.3474L117.169 71.7352L107.836 77.1795L108.216 84.1794L121.826 74.0685L117.563 56.9576Z" fill="#3AD29F" />
		<path d="M101.231 79.8988C105.741 79.8988 109.397 75.5465 109.397 70.1777C109.397 64.8088 105.741 60.4565 101.231 60.4565C96.7215 60.4565 93.0657 64.8088 93.0657 70.1777C93.0657 75.5465 96.7215 79.8988 101.231 79.8988Z" fill="#FFFF00" />
		<path d="M105.314 73.4827H99.4817V82.0381H105.314V73.4827Z" fill="#FDA57D" />
		<path d="M101.231 80.6861L99.6755 78.3528L95.009 80.6861V84.5464C95.009 84.5464 93.3146 87.532 94.6952 90.9701C94.3149 96.0247 93.2842 102.65 93.2842 102.65L110.572 102.777C110.572 102.777 107.461 97.7894 109.016 83.0137L108.636 76.7916L105.137 76.4113L101.231 80.6861Z" fill="#3AD29F" />
		<path opacity="0.05" d="M108.619 76.7897L109.009 77.1776L109.397 83.3104L108.944 83.6469L108.619 76.7897Z" fill="black" />
		<path opacity="0.05" d="M99.6758 74.8443C100.284 75.0592 100.549 75.2247 101.231 75.2247C102.668 75.2249 104.054 74.6923 105.12 73.73V73.6691H99.6758V74.8443Z" fill="black" />
		<path d="M101.425 75.0382C104.646 75.0382 107.257 72.427 107.257 69.2059C107.257 65.9849 104.646 63.3737 101.425 63.3737C98.204 63.3737 95.5928 65.9849 95.5928 69.2059C95.5928 72.427 98.204 75.0382 101.425 75.0382Z" fill="#FDA57D" />
		<path d="M107.259 70.1777C107.582 70.1777 107.843 69.7427 107.843 69.206C107.843 68.6693 107.582 68.2343 107.259 68.2343C106.937 68.2343 106.676 68.6693 106.676 69.206C106.676 69.7427 106.937 70.1777 107.259 70.1777Z" fill="#FDA57D" />
		<path opacity="0.05" d="M96.3327 67.3804V67.6542H106.345V67.928H96.1958L96.3327 67.3804Z" fill="black" />
		<path d="M106.288 62.7898H96.1768V67.8443H106.288V62.7898Z" fill="#FFFF00" />
		<path d="M115.613 53.0688C113.481 53.78 114.27 56.7636 114.422 57.2714L117.56 56.9025C117.602 56.3795 117.802 52.3404 115.613 53.0688Z" fill="#FDA57D" />
		<g opacity="0.05">
			<path opacity="0.05" d="M93.6284 102.65C93.6284 102.65 94.6514 96.0246 95.0394 90.97C93.6683 87.5471 95.3608 84.5463 95.3608 84.5463V80.686L99.7136 78.5087L99.609 78.3527L94.9443 80.686V84.5463C94.9443 84.5463 93.2518 87.5414 94.6229 90.97C94.2426 96.0246 93.2119 102.65 93.2119 102.65L110.5 102.777L93.6284 102.65Z" fill="black" />
			<path opacity="0.05" d="M101.583 80.6765L105.434 76.4416L105.055 76.3998L101.406 80.4122L101.583 80.6765Z" fill="black" />
		</g>
		<path opacity="0.05" d="M98.2114 79.2959L101.199 86.176L106.676 76.7801L105.162 76.5861L101.408 80.338L99.7403 78.463L98.2114 79.2959Z" fill="black" />
		<path d="M98.2114 79.0868L101.199 85.9688L106.676 76.5728L105.162 76.377L101.408 80.1308L99.7403 78.2539L98.2114 79.0868Z" fill="white" />
		<path d="M132.344 108.214H74.5342V110.876H132.344V108.214Z" fill="#E0E0E0" />
		<path d="M123.121 113.539H83.7571V116.201H123.121V113.539Z" fill="#E0E0E0" />
	</g>
	<defs>
		<linearGradient id="paint0_linear" x1="164.255" y1="81.3155" x2="164.255" y2="0" gradientUnits="userSpaceOnUse">
			<stop stop-color="#808080" stop-opacity="0.25" />
			<stop offset="0.54" stop-color="#808080" stop-opacity="0.12" />
			<stop offset="1" stop-color="#808080" stop-opacity="0.1" />
		</linearGradient>
		<linearGradient id="paint1_linear" x1="22206.7" y1="14105.6" x2="25715.6" y2="14105.6" gradientUnits="userSpaceOnUse">
			<stop stop-color="#808080" stop-opacity="0.25" />
			<stop offset="0.54" stop-color="#808080" stop-opacity="0.12" />
			<stop offset="1" stop-color="#808080" stop-opacity="0.1" />
		</linearGradient>
		<linearGradient id="paint2_linear" x1="18106.1" y1="44105.4" x2="18106.1" y2="9334.03" gradientUnits="userSpaceOnUse">
			<stop stop-color="#808080" stop-opacity="0.25" />
			<stop offset="0.54" stop-color="#808080" stop-opacity="0.12" />
			<stop offset="1" stop-color="#808080" stop-opacity="0.1" />
		</linearGradient>
		<linearGradient id="paint3_linear" x1="6112.97" y1="19747.9" x2="10467" y2="19747.9" gradientUnits="userSpaceOnUse">
			<stop stop-color="#808080" stop-opacity="0.25" />
			<stop offset="0.54" stop-color="#808080" stop-opacity="0.12" />
			<stop offset="1" stop-color="#808080" stop-opacity="0.1" />
		</linearGradient>
		<linearGradient id="paint4_linear" x1="45133.3" y1="53923.5" x2="45133.3" y2="19152.2" gradientUnits="userSpaceOnUse">
			<stop stop-color="#808080" stop-opacity="0.25" />
			<stop offset="0.54" stop-color="#808080" stop-opacity="0.12" />
			<stop offset="1" stop-color="#808080" stop-opacity="0.1" />
		</linearGradient>
		<linearGradient id="paint5_linear" x1="17631.4" y1="26861.7" x2="23468.4" y2="26861.7" gradientUnits="userSpaceOnUse">
			<stop stop-color="#808080" stop-opacity="0.25" />
			<stop offset="0.54" stop-color="#808080" stop-opacity="0.12" />
			<stop offset="1" stop-color="#808080" stop-opacity="0.1" />
		</linearGradient>
		<clipPath id="clip0">
			<rect width="205.747" height="126" fill="white" />
		</clipPath>
	</defs>
</svg>
