<svg width="243" height="120" viewBox="0 0 243 120" fill="none" xmlns="http://www.w3.org/2000/svg">
	<g clip-path="url(#clip0)">
		<path d="M242.97 118.071C244.656 119.6 174.413 119.6 176.104 118.071C174.418 116.542 244.661 116.542 242.97 118.071Z" fill="#E6E6E6" />
		<path d="M219.655 73.4389C223.372 78.694 224.354 108.603 224.573 118.19C224.579 118.406 224.584 118.611 224.587 118.805H233.998C234.113 118.6 234.219 118.398 234.32 118.19C239.898 107.181 236.803 93.9797 236.641 93.312C237.064 95.4106 235.148 101.493 232.982 107.386C231.661 89.2689 220.362 74.3536 219.655 73.4389Z" fill="#E6E6E6" />
		<path d="M42.8951 14.9786C35.528 25.3928 33.5819 84.6639 33.1482 103.663C33.1371 104.091 33.126 104.497 33.1204 104.881H14.4717C14.2437 104.475 14.0324 104.074 13.8323 103.663C2.77871 81.8449 8.91156 55.6844 9.23403 54.3611C8.39448 58.5201 12.192 70.5745 16.4845 82.2508C19.1033 46.3489 41.494 16.7912 42.8951 14.9786Z" fill="#E6E6E6" />
		<path d="M129.527 104.267C132.791 108.033 -3.21618 108.033 0.0581936 104.266C-3.20629 100.501 132.801 100.501 129.527 104.267Z" fill="#E6E6E6" />
		<path d="M199.76 102.158C199.238 102.158 199.227 103.786 199.76 103.786H219.289C219.518 103.793 219.706 103.435 219.71 102.985C219.714 102.526 219.522 102.149 219.289 102.158H199.76Z" fill="#3F3D56" />
		<path d="M205.926 96.0939C205.248 96.0939 205.244 97.7219 205.926 97.7219H213.115C213.41 97.7293 213.652 97.3708 213.657 96.9213C213.663 96.4624 213.416 96.0856 213.115 96.0939H205.926Z" fill="#F37A39" />
		<path d="M199.76 108.446C199.238 108.446 199.227 110.074 199.76 110.074H219.289C219.518 110.081 219.706 109.723 219.71 109.273C219.714 108.814 219.522 108.438 219.289 108.446H199.76Z" fill="#3F3D56" />
		<path d="M223.461 88.0368H195.613C195.315 88.0369 195.029 88.1553 194.819 88.3658C194.608 88.5764 194.49 88.8619 194.49 89.1597V117.008C194.49 117.306 194.608 117.592 194.819 117.802C195.029 118.013 195.315 118.131 195.613 118.131H223.461C223.759 118.131 224.044 118.013 224.255 117.802C224.466 117.592 224.584 117.306 224.584 117.008V89.1597C224.584 88.8619 224.466 88.5764 224.255 88.3658C224.044 88.1553 223.759 88.0369 223.461 88.0368ZM224.135 117.008C224.134 117.187 224.063 117.358 223.937 117.484C223.811 117.61 223.64 117.681 223.461 117.682H195.613C195.434 117.681 195.263 117.61 195.137 117.484C195.011 117.358 194.939 117.187 194.939 117.008V89.1597C194.939 88.9812 195.011 88.8101 195.137 88.6839C195.263 88.5577 195.434 88.4865 195.613 88.486H223.461C223.64 88.4865 223.811 88.5577 223.937 88.6839C224.063 88.8101 224.134 88.9812 224.135 89.1597V117.008Z" fill="#3F3D56" />
		<path d="M185.001 65.9316L187.261 64.802L185.378 59.7187L184.882 57.1552C184.817 56.8221 184.667 56.5118 184.445 56.2553C184.223 55.9988 183.937 55.805 183.617 55.6933C183.297 55.5816 182.953 55.5559 182.619 55.6188C182.286 55.6818 181.975 55.8311 181.717 56.0518C181.336 56.379 181.096 56.8416 181.049 57.3421C181.002 57.8426 181.151 58.3418 181.465 58.7344L183.307 61.0366L185.001 65.9316Z" fill="#A0616A" />
		<path d="M184.248 65.3667L184.664 66.6709L186.534 72.5297C186.717 73.1041 187.062 73.6135 187.527 73.9967C187.993 74.38 188.559 74.6208 189.158 74.6904C189.757 74.7599 190.363 74.6552 190.904 74.3889C191.444 74.1225 191.897 73.7057 192.207 73.1886L198.269 62.7989C198.366 62.637 198.448 62.467 198.516 62.2908C198.809 61.5219 198.794 60.6697 198.475 59.9113C198.156 59.153 197.557 58.5467 196.803 58.2185C196.048 57.8903 195.196 57.8655 194.424 58.1491C193.652 58.4328 193.018 59.0031 192.655 59.7416L188.955 67.6262L187.261 63.8609L184.248 65.3667Z" fill="#E6E6E6" />
		<path d="M185.121 103.212L189.263 103.588L191.522 87.2091C198.969 88.462 205.995 88.8633 212.071 87.3477C212.585 87.2214 213.067 86.9903 213.487 86.6689C213.907 86.3475 214.256 85.9428 214.512 85.4801C214.768 85.0174 214.926 84.5068 214.975 83.9803C215.024 83.4538 214.964 82.9227 214.799 82.4205C214.071 80.2499 212.79 77.9238 211.29 75.5364L201.312 79.1135L200.935 80.6197L190.292 79.2725C189.755 79.2044 189.209 79.2489 188.69 79.4032C188.17 79.5574 187.689 79.8179 187.275 80.1683C186.862 80.5186 186.526 80.9511 186.289 81.4382C186.052 81.9253 185.919 82.4564 185.898 82.9978L185.121 103.212Z" fill="#2F2E41" />
		<path d="M180.609 106.386C180.57 106.106 180.611 105.82 180.728 105.562C180.846 105.305 181.035 105.086 181.272 104.933L185.524 102.846L188.73 103.251L189.487 105.965C189.519 106.158 189.511 106.356 189.464 106.547C189.417 106.737 189.332 106.916 189.214 107.072C189.096 107.228 188.947 107.359 188.777 107.456C188.606 107.553 188.418 107.614 188.223 107.636L182.242 107.649C181.859 107.692 181.474 107.584 181.169 107.349C180.865 107.113 180.664 106.767 180.609 106.386Z" fill="#2F2E41" />
		<path d="M184.074 101.118L188.216 101.494L190.475 85.1149C197.922 86.3677 204.948 86.7691 211.025 85.2535C211.539 85.1272 212.02 84.8961 212.44 84.5747C212.86 84.2533 213.209 83.8485 213.465 83.3859C213.721 82.9232 213.879 82.4125 213.928 81.886C213.978 81.3595 213.918 80.8285 213.752 80.3263C213.025 78.1557 211.743 75.8296 210.244 73.4422L200.265 77.0193L199.889 78.5255L189.246 77.1782C188.708 77.1102 188.163 77.1547 187.643 77.3089C187.124 77.4631 186.642 77.7237 186.229 78.074C185.816 78.4244 185.48 78.8568 185.243 79.344C185.006 79.8311 184.873 80.3622 184.852 80.9035L184.074 101.118Z" fill="#2F2E41" />
		<path d="M179.564 104.292C179.524 104.011 179.565 103.726 179.682 103.468C179.8 103.211 179.989 102.992 180.226 102.839L184.478 100.752L187.684 101.157L188.441 103.871C188.473 104.064 188.465 104.262 188.418 104.452C188.371 104.643 188.286 104.821 188.168 104.978C188.05 105.134 187.901 105.265 187.731 105.362C187.56 105.459 187.372 105.52 187.177 105.542L181.196 105.555C180.813 105.598 180.428 105.49 180.123 105.254C179.819 105.018 179.618 104.673 179.564 104.292Z" fill="#2F2E41" />
		<path d="M191.605 56.3098C194.412 56.3098 196.688 54.034 196.688 51.2266C196.688 48.4192 194.412 46.1433 191.605 46.1433C188.797 46.1433 186.521 48.4192 186.521 51.2266C186.521 54.034 188.797 56.3098 191.605 56.3098Z" fill="#A0616A" />
		<path d="M191.793 61.5813L197.63 60.8282L195.37 53.8623H189.722L191.793 61.5813Z" fill="#A0616A" />
		<path d="M190.205 68.6052C190.501 69.4274 190.93 70.1953 191.475 70.8783C192.252 71.8319 193.186 72.6464 194.236 73.2868C194.419 73.4054 194.609 73.5189 194.805 73.6307L195.926 74.586L199.888 77.96L210.808 73.8187C208.4 68.4663 205.395 64.2353 201.951 60.8274C201.236 59.7781 200.216 58.9733 199.029 58.5215C197.842 58.0696 196.545 57.9924 195.313 58.3003L191.228 59.3216C189.775 62.7515 189.234 65.9053 190.205 68.6052Z" fill="#E6E6E6" />
		<path d="M181.31 53.958C181.246 53.8952 181.163 53.8561 181.074 53.8473C180.985 53.8386 180.895 53.8606 180.82 53.9098C180.721 54.0153 177.45 55.9531 177.655 56.1453C177.649 56.2036 177.656 56.2626 177.676 56.3178C177.696 56.373 177.727 56.4231 177.769 56.4644L185.369 64.0319C185.406 64.0687 185.45 64.0978 185.498 64.1174C185.547 64.1371 185.598 64.1469 185.651 64.1464C185.803 64.3418 188.295 61.503 188.42 61.4486C188.492 61.3738 188.532 61.2735 188.53 61.1697C188.529 61.0659 188.486 60.9669 188.412 60.8941L181.31 53.958Z" fill="#3F3D56" />
		<path d="M178.42 56.0648L178.73 55.8676C178.699 55.9257 178.688 55.9924 178.699 56.0572C178.71 56.122 178.743 56.1813 178.791 56.2256C178.84 56.27 178.902 56.2969 178.968 56.3021C179.033 56.3073 179.099 56.2906 179.154 56.2545L181.155 54.8785C181.2 54.8468 181.235 54.8033 181.257 54.7529C181.278 54.7024 181.285 54.647 181.277 54.5927C181.269 54.5385 181.246 54.4875 181.211 54.4455C181.176 54.4035 181.129 54.3721 181.077 54.3549C181.156 54.328 181.285 54.167 181.371 54.2683L188.104 60.8851C188.343 61.0018 185.657 63.3297 185.656 63.4212C185.455 63.6446 178.549 56.2362 178.402 56.2311C178.391 56.2197 178.382 56.206 178.377 56.1908C178.371 56.1757 178.369 56.1595 178.371 56.1436C178.373 56.1276 178.378 56.1122 178.387 56.0986C178.395 56.085 178.407 56.0734 178.42 56.0648Z" fill="white" />
		<path d="M186.191 59.4238L184.126 61.3712L179.213 56.5175L181.706 54.8944L186.191 59.4238Z" fill="#F37A39" />
		<path d="M179.404 57.7154C179.521 57.6294 178.997 57.2475 178.974 57.1847C178.961 57.1717 178.942 57.1644 178.924 57.1644C178.905 57.1644 178.887 57.1717 178.873 57.1847C178.756 57.2706 179.28 57.6525 179.303 57.7154C179.316 57.7284 179.334 57.7356 179.353 57.7356C179.372 57.7356 179.39 57.7284 179.404 57.7154Z" fill="#E6E6E6" />
		<path d="M180.128 58.3379C180.063 58.314 179.685 57.7919 179.597 57.9082C179.48 57.9942 180.004 58.3761 180.027 58.439C180.091 58.5053 180.194 58.4026 180.128 58.3379Z" fill="#E6E6E6" />
		<path d="M185.661 61.0955C185.652 61.7215 186.635 61.7215 186.626 61.0954C186.635 60.4695 185.652 60.4695 185.661 61.0955Z" fill="#F37A39" />
		<path opacity="0.2" d="M191.475 70.8782C192.252 71.8318 193.186 72.6463 194.236 73.2867C194.419 73.4053 194.609 73.5188 194.805 73.6306L195.926 74.5859C198.152 71.6607 198.027 62.7734 198.027 62.7734L194.639 63.1122L191.475 70.8782Z" fill="black" />
		<path d="M184.828 68.5473L187.087 67.4177L185.204 62.3345L184.708 59.7709C184.644 59.4379 184.493 59.1276 184.271 58.871C184.049 58.6145 183.764 58.4207 183.443 58.309C183.123 58.1973 182.779 58.1716 182.445 58.2346C182.112 58.2975 181.801 58.4468 181.544 58.6676C181.162 58.9947 180.922 59.4574 180.875 59.9579C180.828 60.4584 180.977 60.9576 181.291 61.3501L183.133 63.6523L184.828 68.5473Z" fill="#A0616A" />
		<path d="M187.087 66.4763L184.074 67.9825L186.36 75.1454C186.524 75.6597 186.819 76.1229 187.215 76.4901C187.61 76.8573 188.094 77.1159 188.62 77.241C189.267 77.3952 189.947 77.3391 190.561 77.0809C191.174 76.8227 191.69 76.3757 192.032 75.8048L198.094 65.4145C198.524 64.6986 198.657 63.843 198.464 63.0306C198.271 62.2182 197.768 61.5133 197.063 61.0666C196.684 60.8263 196.258 60.6686 195.813 60.6037C195.369 60.5389 194.916 60.5683 194.484 60.6901C194.052 60.8119 193.65 61.0234 193.305 61.3107C192.96 61.5981 192.679 61.9548 192.481 62.3579L188.781 70.2417L187.087 66.4763Z" fill="#E6E6E6" />
		<path d="M189.692 49.2466C189.278 49.5921 188.81 49.868 188.307 50.0636C188.055 50.1597 187.785 50.1994 187.516 50.1801C187.247 50.1608 186.985 50.0828 186.749 49.9518C186.49 49.766 186.286 49.5141 186.159 49.2225C186.031 48.9308 185.983 48.6102 186.022 48.2941C186.108 47.6616 186.362 47.0637 186.758 46.5627C187.44 45.6137 188.337 44.8395 189.376 44.3034C190.415 43.7673 191.565 43.4845 192.734 43.478C193.903 43.4716 195.057 43.7417 196.101 44.2662C197.146 44.7908 198.052 45.5551 198.744 46.4965C199.249 47.1268 199.56 47.8905 199.638 48.6944C199.711 50.1066 198.744 51.4249 198.848 52.8352C198.935 54.028 199.791 55.0498 200.805 55.684C201.819 56.3182 202.991 56.6397 204.125 57.0206C205.258 57.4015 206.405 57.8714 207.244 58.7237C208.083 59.5759 208.546 60.8984 208.085 62.0021C207.707 62.9091 206.808 63.4859 205.906 63.8765C203.488 64.912 200.771 65.0139 198.282 64.1627C197.365 63.8445 196.363 63.208 196.349 62.2369C196.343 61.8155 196.532 61.4198 196.646 61.0139C196.76 60.6081 196.782 60.124 196.496 59.8141C196.142 59.4297 195.487 59.5182 195.063 59.8248C194.64 60.1314 194.365 60.5964 194.015 60.9853C193.352 61.7237 192.346 62.1954 191.363 62.0563C190.381 61.9172 189.492 61.08 189.452 60.0882C189.382 58.3845 191.516 57.3178 191.748 55.6285C191.903 54.5003 191.169 53.4681 190.532 52.5237C189.896 51.5794 189.304 50.3962 189.749 49.3481" fill="#2F2E41" />
		<path d="M118.857 103.557H34.9839C34.5721 103.556 34.1773 103.392 33.8861 103.101C33.5949 102.81 33.4311 102.415 33.4307 102.003V30.2804C33.4311 29.8686 33.5949 29.4738 33.8861 29.1826C34.1773 28.8915 34.5721 28.7277 34.9839 28.7272H118.857C119.269 28.7277 119.664 28.8915 119.955 29.1826C120.246 29.4738 120.41 29.8686 120.411 30.2804V102.003C120.41 102.415 120.246 102.81 119.955 103.101C119.664 103.392 119.269 103.556 118.857 103.557ZM34.9839 29.3485C34.7368 29.3487 34.4999 29.447 34.3252 29.6217C34.1505 29.7964 34.0522 30.0333 34.052 30.2804V102.003C34.0522 102.25 34.1505 102.487 34.3252 102.662C34.4999 102.837 34.7368 102.935 34.9839 102.935H118.857C119.104 102.935 119.341 102.837 119.516 102.662C119.691 102.487 119.789 102.25 119.789 102.003V30.2804C119.789 30.0333 119.691 29.7964 119.516 29.6217C119.341 29.447 119.104 29.3487 118.857 29.3485H34.9839Z" fill="#3F3D56" />
		<path d="M48.0154 97.1293C51.5097 97.1293 54.3424 94.2966 54.3424 90.8023C54.3424 87.308 51.5097 84.4753 48.0154 84.4753C44.5212 84.4753 41.6885 87.308 41.6885 90.8023C41.6885 94.2966 44.5212 97.1293 48.0154 97.1293Z" fill="#E6E6E6" />
		<path d="M62.6282 86.5843C62.3488 86.5847 62.0809 86.696 61.8835 86.8937C61.6861 87.0914 61.5752 87.3594 61.5752 87.6388C61.5752 87.9182 61.6861 88.1862 61.8835 88.3839C62.0809 88.5816 62.3488 88.6929 62.6282 88.6933H112.34C112.62 88.6933 112.888 88.5822 113.086 88.3844C113.283 88.1867 113.394 87.9185 113.394 87.6388C113.394 87.3591 113.283 87.0909 113.086 86.8931C112.888 86.6954 112.62 86.5843 112.34 86.5843H62.6282Z" fill="#E6E6E6" />
		<path d="M62.6282 92.9113C62.3486 92.9113 62.0803 93.0224 61.8826 93.2201C61.6848 93.4179 61.5737 93.6861 61.5737 93.9657C61.5737 94.2454 61.6848 94.5136 61.8826 94.7114C62.0803 94.9092 62.3486 95.0202 62.6282 95.0202H84.0194C84.158 95.0204 84.2953 94.9933 84.4234 94.9404C84.5515 94.8875 84.6679 94.8099 84.766 94.7119C84.8641 94.614 84.9419 94.4977 84.995 94.3696C85.0481 94.2416 85.0754 94.1044 85.0754 93.9657C85.0754 93.8271 85.0481 93.6899 84.995 93.5619C84.9419 93.4338 84.8641 93.3175 84.766 93.2196C84.6679 93.1216 84.5515 93.044 84.4234 92.9911C84.2953 92.9382 84.158 92.9111 84.0194 92.9113H62.6282Z" fill="#E6E6E6" />
		<path d="M138.785 78.5405H54.9111C54.4993 78.54 54.1045 78.3762 53.8134 78.085C53.5222 77.7938 53.3584 77.399 53.3579 76.9873V40.1792C53.3584 39.7674 53.5222 39.3726 53.8134 39.0814C54.1045 38.7903 54.4993 38.6265 54.9111 38.626H138.785C139.196 38.6265 139.591 38.7903 139.882 39.0814C140.174 39.3726 140.337 39.7674 140.338 40.1792V76.9873C140.337 77.3991 140.174 77.7938 139.882 78.085C139.591 78.3762 139.196 78.54 138.785 78.5405Z" fill="#F37A39" />
		<path d="M71.9914 51.4556C71.712 51.456 71.4442 51.5673 71.2468 51.765C71.0494 51.9627 70.9385 52.2307 70.9385 52.5101C70.9385 52.7895 71.0494 53.0574 71.2468 53.2552C71.4442 53.4529 71.712 53.5641 71.9914 53.5646H121.703C121.983 53.5641 122.25 53.4529 122.448 53.2552C122.645 53.0574 122.756 52.7895 122.756 52.5101C122.756 52.2307 122.645 51.9627 122.448 51.765C122.25 51.5673 121.983 51.456 121.703 51.4556H71.9914Z" fill="white" />
		<path d="M71.9914 57.5657C71.712 57.5661 71.4442 57.6774 71.2468 57.8751C71.0494 58.0728 70.9385 58.3408 70.9385 58.6202C70.9385 58.8996 71.0494 59.1676 71.2468 59.3653C71.4442 59.563 71.712 59.6743 71.9914 59.6747H121.703C121.983 59.6743 122.25 59.563 122.448 59.3653C122.645 59.1676 122.756 58.8996 122.756 58.6202C122.756 58.3408 122.645 58.0728 122.448 57.8751C122.25 57.6774 121.983 57.5661 121.703 57.5657H71.9914Z" fill="white" />
		<path d="M71.9914 63.6018C71.712 63.6022 71.4442 63.7135 71.2468 63.9112C71.0494 64.1089 70.9385 64.3769 70.9385 64.6563C70.9385 64.9357 71.0494 65.2037 71.2468 65.4014C71.4442 65.5991 71.712 65.7104 71.9914 65.7108H93.3826C93.5212 65.711 93.6585 65.6839 93.7866 65.631C93.9147 65.5781 94.0311 65.5004 94.1292 65.4025C94.2273 65.3045 94.3051 65.1882 94.3582 65.0602C94.4113 64.9322 94.4386 64.7949 94.4386 64.6563C94.4386 64.5177 94.4113 64.3804 94.3582 64.2524C94.3051 64.1244 94.2273 64.008 94.1292 63.9101C94.0311 63.8122 93.9147 63.7345 93.7866 63.6816C93.6585 63.6287 93.5212 63.6016 93.3826 63.6018H71.9914Z" fill="white" />
		<path d="M138.939 82.5068C142.434 82.5068 145.266 79.6742 145.266 76.1799C145.266 72.6856 142.434 69.8529 138.939 69.8529C135.445 69.8529 132.612 72.6856 132.612 76.1799C132.612 79.6742 135.445 82.5068 138.939 82.5068Z" fill="#3F3D56" />
		<path d="M138.412 78.9772L136.403 76.3954L137.571 75.487L138.522 76.7096L141.734 73.3188L142.808 74.3364L138.412 78.9772Z" fill="white" />
		<path d="M128.497 11.1504L118.216 13.5031L113.873 5.31051L122.664 1.87842L128.497 11.1504Z" fill="#2F2E41" />
		<path d="M137.041 69.3376L140.894 65.8363L132.585 47.0926L125.324 38.155L137.187 43.2897L138.421 56.3637L144.32 58.3933L143.556 42.0693C143.508 41.0513 143.169 40.0685 142.578 39.2378C141.988 38.407 141.171 37.7634 140.226 37.3836L130.493 33.4741L128.751 26.1593L118.59 26.0139C115.433 31.5078 114.022 36.3429 116.3 39.7867L126.873 50.0976L137.041 69.3376Z" fill="#2F2E41" />
		<path d="M138.837 66.9387C138.837 66.9387 139.384 65.302 140.243 65.6788C141.101 66.0555 143.506 67.964 143.506 67.964C143.506 67.964 147.523 68.5322 145.007 69.9878C142.491 71.4434 141.507 71.3528 141.427 71.1469C141.346 70.941 140.694 70.484 140.694 70.484L139.745 71.0913L138.143 71.2416C138.143 71.2416 136.046 67.6892 136.721 67.595C137.396 67.5008 138.872 67.6367 138.837 66.9387Z" fill="#2F2E41" />
		<path d="M141.371 56.9017C141.371 56.9017 143.041 56.4675 143.194 57.3925C143.347 58.3175 143.059 61.374 143.059 61.374C143.059 61.374 144.775 65.0501 142.182 63.7361C139.59 62.4221 139.129 61.548 139.257 61.3684C139.386 61.1887 139.413 60.3924 139.413 60.3924L138.386 59.9285L137.386 58.6683C137.386 58.6683 139.219 54.9724 139.666 55.4866C140.113 56.0007 140.805 57.3119 141.371 56.9017Z" fill="#2F2E41" />
		<path d="M119.814 10.3851C121.871 10.3851 123.538 8.7178 123.538 6.66111C123.538 4.60441 121.871 2.93713 119.814 2.93713C117.757 2.93713 116.09 4.60441 116.09 6.66111C116.09 8.7178 117.757 10.3851 119.814 10.3851Z" fill="#FFB9B9" />
		<path d="M119.381 18.9324L128.421 17.6274C127.071 15.1849 125.68 12.9588 123.81 13.2077C122.147 12.0435 122.051 10.1719 122.471 8.06714L117.947 9.27668C118.345 10.5741 118.191 11.7133 117.13 12.5929C118.612 14.6786 119.571 16.7839 119.381 18.9324Z" fill="#FFB9B9" />
		<path d="M118.697 26.8601C121.91 31.0423 125.204 32.6947 128.745 26.7163L129.037 24.0487C131.31 21.1826 130.644 18.7059 127.873 16.5084L126.536 13.3657L124.522 13.041C124.787 13.3474 124.956 13.7256 125.006 14.1277C125.057 14.5299 124.987 14.938 124.806 15.3004C124.624 15.6629 124.339 15.9635 123.987 16.1642C123.635 16.365 123.232 16.4569 122.827 16.4283L122.099 16.3769C121.829 16.3578 121.566 16.2855 121.324 16.1642C121.082 16.0429 120.867 15.8749 120.69 15.6699L117.596 12.0782L116.292 12.4268C116.144 12.4662 116.013 12.5509 115.915 12.6688C115.818 12.7868 115.76 12.9322 115.749 13.0847L115.326 19.0702C117.187 21.1317 118.258 23.767 118.697 26.8601Z" fill="#E6E6E6" />
		<path d="M117.26 24.312L110.145 22.8674L114.871 18.4708L113.072 15.2185L105.435 23.3418C105.304 23.491 105.216 23.6734 105.181 23.869C105.147 24.0646 105.166 24.266 105.238 24.4513C105.31 24.6365 105.431 24.7985 105.588 24.9197C105.746 25.0408 105.934 25.1164 106.131 25.1383L116.474 26.2838L116.899 28.1556C116.955 28.4046 117.071 28.6364 117.236 28.8313C117.401 29.0262 117.61 29.1785 117.846 29.2754C118.083 29.3723 118.339 29.4109 118.593 29.3879C118.847 29.365 119.092 29.2812 119.307 29.1436C119.506 29.0162 119.674 28.846 119.799 28.6455C119.924 28.445 120.003 28.2191 120.03 27.9843C120.057 27.7495 120.031 27.5117 119.954 27.2882C119.878 27.0646 119.752 26.861 119.587 26.692L117.26 24.312Z" fill="#FFB9B9" />
		<path d="M128.321 35.8757L127.376 38.3345C127.284 38.5747 127.244 38.8317 127.258 39.0886C127.273 39.3455 127.342 39.5964 127.46 39.8248C127.579 40.0531 127.744 40.2537 127.946 40.4132C128.148 40.5728 128.382 40.6877 128.631 40.7503C128.924 40.8237 129.23 40.8232 129.522 40.7489C129.814 40.6746 130.083 40.5288 130.305 40.3246C130.527 40.1204 130.695 39.8643 130.793 39.5792C130.891 39.2942 130.917 38.9892 130.868 38.6916L130.469 36.2593L131.782 26.5313L130.608 20.1051L127.931 20.9272L128.821 26.9091L128.321 35.8757Z" fill="#FFB9B9" />
		<path d="M127.31 21.6134L131.358 20.0347L129.102 15.0914C128.861 14.5632 128.481 14.1106 128.002 13.7821C127.524 13.4535 126.965 13.2614 126.385 13.2262L125.347 13.1633L127.31 21.6134Z" fill="#E6E6E6" />
		<path d="M113.977 19.5965L118.292 18.1354L116.771 12.9586C116.722 12.791 116.614 12.6465 116.468 12.5509C116.322 12.4553 116.146 12.415 115.973 12.4371C115.827 12.4558 115.689 12.5182 115.578 12.6163L111.17 16.5275C112.013 17.9159 112.911 17.9508 113.977 19.5965Z" fill="#E6E6E6" />
		<path d="M122.287 0.615101C122.287 0.615101 124.565 1.04349 125.091 3.88394C125.174 4.36295 125.189 4.85113 125.136 5.3343C125.083 5.88106 125.16 7.03587 126.347 8.39564C127.122 9.27758 127.843 10.2046 128.508 11.1717L126.129 11.8053L125.065 7.86243C124.55 5.95085 123.756 4.12558 122.709 2.44535L122.687 2.41027C122.687 2.41027 121.896 4.5222 119.778 4.81173L120.431 3.95172C120.431 3.95172 117.954 5.38334 116.551 5.82067C116.391 5.87062 116.248 5.9633 116.136 6.08874C116.025 6.21417 115.95 6.36762 115.919 6.53253C115.889 6.69745 115.904 6.86759 115.963 7.02463C116.022 7.18167 116.122 7.31966 116.254 7.42372C116.264 7.43155 116.274 7.43938 116.284 7.44722C117.316 8.23107 119.422 10.1014 118.59 11.9107C117.758 13.72 118.728 14.0498 118.728 14.0498L116.94 13.3694L116.121 13.0188L116.204 13.6241L112.207 13.7079C112.207 13.7079 111.127 13.7013 113.046 10.8186C113.046 10.8186 113.508 9.73775 113.128 8.91199C112.823 8.28664 112.672 7.59772 112.685 6.90211C112.806 3.99585 114.031 -1.91666 122.287 0.615101Z" fill="#2F2E41" />
	</g>
	<defs>
		<clipPath id="clip0">
			<rect width="243" height="119.218" fill="white" />
		</clipPath>
	</defs>
</svg>
