<svg width="133" height="109" viewBox="0 0 133 109" fill="none" xmlns="http://www.w3.org/2000/svg">
	<g clip-path="url(#clip0)">
		<path opacity="0.1" d="M130.079 108.107C131.203 106.983 129.902 103.86 127.174 101.132C124.445 98.4032 121.322 97.1024 120.198 98.2263C119.074 99.3502 120.375 102.473 123.104 105.202C125.832 107.93 128.955 109.231 130.079 108.107Z" fill="#F37A39" />
		<path d="M125.633 103.623C126.486 103.623 127.177 102.717 127.177 101.6C127.177 100.483 126.486 99.5773 125.633 99.5773C124.78 99.5773 124.088 100.483 124.088 101.6C124.088 102.717 124.78 103.623 125.633 103.623Z" fill="#3F3D56" />
		<path d="M125.633 101.151C126.486 101.151 127.177 100.245 127.177 99.1281C127.177 98.011 126.486 97.1053 125.633 97.1053C124.78 97.1053 124.088 98.011 124.088 99.1281C124.088 100.245 124.78 101.151 125.633 101.151Z" fill="#3F3D56" />
		<path d="M125.633 98.6789C126.486 98.6789 127.177 97.7733 127.177 96.6561C127.177 95.539 126.486 94.6334 125.633 94.6334C124.78 94.6334 124.088 95.539 124.088 96.6561C124.088 97.7733 124.78 98.6789 125.633 98.6789Z" fill="#3F3D56" />
		<path d="M125.633 96.207C126.486 96.207 127.177 95.3014 127.177 94.1842C127.177 93.0671 126.486 92.1614 125.633 92.1614C124.78 92.1614 124.088 93.0671 124.088 94.1842C124.088 95.3014 124.78 96.207 125.633 96.207Z" fill="#3F3D56" />
		<path d="M125.633 93.735C126.486 93.735 127.177 92.8294 127.177 91.7122C127.177 90.5951 126.486 89.6895 125.633 89.6895C124.78 89.6895 124.088 90.5951 124.088 91.7122C124.088 92.8294 124.78 93.735 125.633 93.735Z" fill="#3F3D56" />
		<path d="M125.633 91.263C126.486 91.263 127.177 90.3574 127.177 89.2403C127.177 88.1231 126.486 87.2175 125.633 87.2175C124.78 87.2175 124.088 88.1231 124.088 89.2403C124.088 90.3574 124.78 91.263 125.633 91.263Z" fill="#3F3D56" />
		<path d="M125.633 88.7911C126.486 88.7911 127.177 87.8854 127.177 86.7683C127.177 85.6511 126.486 84.7455 125.633 84.7455C124.78 84.7455 124.088 85.6511 124.088 86.7683C124.088 87.8854 124.78 88.7911 125.633 88.7911Z" fill="#3F3D56" />
		<path d="M131.416 69.8517C131.628 69.5833 131.82 69.3004 131.992 69.0052L127.932 68.3386L132.323 68.3703C132.745 67.4539 132.975 66.4614 132.999 65.4531C133.024 64.4449 132.843 63.4423 132.467 62.5063L126.578 65.5628L132.007 61.5691C131.498 60.6888 130.814 59.9227 129.996 59.3186C129.178 58.7144 128.245 58.2852 127.254 58.0577C126.263 57.8302 125.236 57.8093 124.237 57.9962C123.238 58.1831 122.287 58.5739 121.446 59.1442C120.604 59.7145 119.889 60.4521 119.345 61.311C118.801 62.1698 118.44 63.1315 118.284 64.1361C118.128 65.1408 118.181 66.1667 118.439 67.1501C118.697 68.1335 119.155 69.0531 119.784 69.8517C119.455 70.2696 119.172 70.7219 118.94 71.2007L124.209 73.9362L118.594 72.0502C118.2 73.2165 118.103 74.4626 118.311 75.676C118.52 76.8894 119.027 78.0317 119.788 78.9996C118.929 80.0912 118.395 81.4023 118.247 82.783C118.098 84.1638 118.341 85.5585 118.948 86.8077C119.555 88.0569 120.501 89.1102 121.678 89.847C122.855 90.5839 124.216 90.9747 125.604 90.9747C126.993 90.9747 128.354 90.5839 129.531 89.847C130.708 89.1102 131.654 88.0569 132.261 86.8077C132.868 85.5585 133.111 84.1638 132.962 82.783C132.813 81.4023 132.279 80.0912 131.421 78.9996C132.447 77.6951 133.004 76.0838 133.004 74.4242C133.004 72.7647 132.447 71.1533 131.421 69.8488L131.416 69.8517Z" fill="#F37A39" />
		<path opacity="0.1" d="M118.2 74.4271C118.197 76.0871 118.755 77.6994 119.784 79.0025C118.925 80.094 118.391 81.4051 118.243 82.7859C118.094 84.1667 118.337 85.5614 118.944 86.8106C119.551 88.0598 120.497 89.113 121.674 89.8499C122.851 90.5868 124.212 90.9776 125.6 90.9776C126.989 90.9776 128.35 90.5868 129.527 89.8499C130.704 89.113 131.65 88.0598 132.257 86.8106C132.863 85.5614 133.106 84.1667 132.958 82.7859C132.809 81.4051 132.275 80.094 131.417 79.0025C132.409 77.7442 118.2 73.5964 118.2 74.4271Z" fill="black" />
		<path d="M121.939 6.10352e-05V103.659L86.8104 98.7639L44.1073 107.476L43.7632 107.546L9.78613 98.188V8.06241L45.0589 6.10352e-05L83.643 8.06241L85.1101 7.75287L121.939 6.10352e-05Z" fill="#444053" />
		<path d="M116.036 5.66101V98.4083L84.6057 94.0287L46.3974 101.823L46.0893 101.885L15.6885 93.5133V12.8739L47.2497 5.66101L81.771 12.8739L83.084 12.5975L116.036 5.66101Z" fill="white" />
		<path opacity="0.1" d="M86.8096 98.7639L44.1064 107.476L45.0581 6.10352e-05L83.6422 8.06241L85.1093 7.75287L86.8096 98.7639Z" fill="black" />
		<g opacity="0.3">
			<path opacity="0.3" d="M82.5459 19.868L82.5632 50.0299H95.0886V37.6484H116.54L119.06 34.4177" stroke="#444053" stroke-width="0.431912" stroke-miterlimit="10" />
			<path opacity="0.3" d="M12.8086 29.4421H59.3831L62.2625 28.1464H63.4142V57.2284H83.5701L84.4339 59.8199V72.9212H99.9828V89.1179" stroke="#444053" stroke-width="0.431912" stroke-miterlimit="10" />
			<path opacity="0.3" d="M69.5664 89.1179V57.2284" stroke="#444053" stroke-width="0.431912" stroke-miterlimit="10" />
			<path opacity="0.3" d="M119.059 80.5746H69.5664" stroke="#444053" stroke-width="0.431912" stroke-miterlimit="10" />
			<path opacity="0.3" d="M106.663 19.868V89.1179" stroke="#444053" stroke-width="0.431912" stroke-miterlimit="10" />
			<path opacity="0.3" d="M12.665 74.453H119.059" stroke="#444053" stroke-width="0.431912" stroke-miterlimit="10" />
			<path opacity="0.3" d="M25.6143 89.1179V19.868" stroke="#444053" stroke-width="0.431912" stroke-miterlimit="10" />
			<path opacity="0.3" d="M50.3447 19.868V89.1179" stroke="#444053" stroke-width="0.431912" stroke-miterlimit="10" />
			<path opacity="0.3" d="M12.8086 37.3605L95.0878 37.6484" stroke="#444053" stroke-width="0.431912" stroke-miterlimit="10" />
			<path opacity="0.3" d="M36.7559 19.9933V89.1179" stroke="#444053" stroke-width="0.431912" stroke-miterlimit="10" />
			<path opacity="0.3" d="M12.665 53.3872H50.345L69.5665 74.453" stroke="#444053" stroke-width="0.431912" stroke-miterlimit="10" />
			<path opacity="0.3" d="M73.7305 19.868V57.2284" stroke="#444053" stroke-width="0.431912" stroke-miterlimit="10" />
			<path opacity="0.3" d="M69.5664 63.9202H119.059" stroke="#444053" stroke-width="0.431912" stroke-miterlimit="10" />
		</g>
		<path d="M84.3623 63.6351H69.8213V57.3004L83.5705 57.2284L84.4343 59.6759L84.3623 63.6351Z" fill="#F37A39" />
		<path d="M77.1638 30.8098C75.053 30.8098 73.0287 31.6483 71.5361 33.1409C70.0436 34.6334 69.2051 36.6577 69.2051 38.7685C69.2051 43.1639 77.1638 57.4444 77.1638 57.4444C77.1638 57.4444 85.1225 43.1697 85.1225 38.7685C85.1225 36.6577 84.284 34.6334 82.7914 33.1409C81.2989 31.6483 79.2746 30.8098 77.1638 30.8098ZM77.1638 42.1633C76.4713 42.1633 75.7943 41.958 75.2185 41.5732C74.6427 41.1885 74.1939 40.6417 73.9289 40.0019C73.6639 39.3621 73.5946 38.6581 73.7297 37.9789C73.8648 37.2997 74.1983 36.6758 74.6879 36.1861C75.1776 35.6965 75.8015 35.363 76.4807 35.2279C77.1599 35.0928 77.8639 35.1621 78.5037 35.4271C79.1435 35.6921 79.6903 36.1409 80.075 36.7167C80.4598 37.2925 80.6651 37.9695 80.6651 38.662C80.6648 39.5903 80.2957 40.4806 79.6391 41.1369C78.9825 41.7932 78.0921 42.1619 77.1638 42.1619V42.1633Z" fill="#F37A39" />
		<path opacity="0.1" d="M77.1638 30.8098C75.053 30.8098 73.0287 31.6483 71.5361 33.1409C70.0436 34.6334 69.2051 36.6577 69.2051 38.7685C69.2051 43.1639 77.1638 57.4444 77.1638 57.4444C77.1638 57.4444 85.1225 43.1697 85.1225 38.7685C85.1225 36.6577 84.284 34.6334 82.7914 33.1409C81.2989 31.6483 79.2746 30.8098 77.1638 30.8098ZM77.1638 42.1633C76.4713 42.1633 75.7943 41.958 75.2185 41.5732C74.6427 41.1885 74.1939 40.6417 73.9289 40.0019C73.6639 39.3621 73.5946 38.6581 73.7297 37.9789C73.8648 37.2997 74.1983 36.6758 74.6879 36.1861C75.1776 35.6965 75.8015 35.363 76.4807 35.2279C77.1599 35.0928 77.8639 35.1621 78.5037 35.4271C79.1435 35.6921 79.6903 36.1409 80.075 36.7167C80.4598 37.2925 80.6651 37.9695 80.6651 38.662C80.6648 39.5903 80.2957 40.4806 79.6391 41.1369C78.9825 41.7932 78.0921 42.1619 77.1638 42.1619V42.1633Z" fill="black" />
		<path d="M77.1638 31.9615C75.053 31.9615 73.0287 32.8 71.5361 34.2926C70.0436 35.7851 69.2051 37.8095 69.2051 39.9202C69.2051 44.3157 77.1638 58.5961 77.1638 58.5961C77.1638 58.5961 85.1225 44.3214 85.1225 39.9202C85.1225 37.8095 84.284 35.7851 82.7914 34.2926C81.2989 32.8 79.2746 31.9615 77.1638 31.9615ZM77.1638 43.3151C76.4713 43.3151 75.7943 43.1097 75.2185 42.725C74.6427 42.3402 74.1939 41.7934 73.9289 41.1536C73.6639 40.5138 73.5946 39.8098 73.7297 39.1306C73.8648 38.4514 74.1983 37.8275 74.6879 37.3379C75.1776 36.8482 75.8015 36.5147 76.4807 36.3796C77.1599 36.2445 77.8639 36.3139 78.5037 36.5789C79.1435 36.8439 79.6903 37.2927 80.075 37.8684C80.4598 38.4442 80.6651 39.1212 80.6651 39.8137C80.6648 40.7421 80.2957 41.6323 79.6391 42.2886C78.9825 42.9449 78.0921 43.3136 77.1638 43.3136V43.3151Z" fill="#F37A39" />
		<path opacity="0.1" d="M74.4662 107.413C76.909 106.361 78.5379 104.692 78.1045 103.686C77.6711 102.68 75.3395 102.717 72.8967 103.769C70.4539 104.821 68.825 106.489 69.2584 107.496C69.6918 108.502 72.0234 108.465 74.4662 107.413Z" fill="#F37A39" />
		<path d="M73.625 106.2C74.2134 106.2 74.6903 105.576 74.6903 104.806C74.6903 104.037 74.2134 103.413 73.625 103.413C73.0366 103.413 72.5596 104.037 72.5596 104.806C72.5596 105.576 73.0366 106.2 73.625 106.2Z" fill="#3F3D56" />
		<path d="M73.625 104.495C74.2134 104.495 74.6903 103.871 74.6903 103.102C74.6903 102.332 74.2134 101.708 73.625 101.708C73.0366 101.708 72.5596 102.332 72.5596 103.102C72.5596 103.871 73.0366 104.495 73.625 104.495Z" fill="#3F3D56" />
		<path d="M73.625 102.792C74.2134 102.792 74.6903 102.168 74.6903 101.399C74.6903 100.629 74.2134 100.005 73.625 100.005C73.0366 100.005 72.5596 100.629 72.5596 101.399C72.5596 102.168 73.0366 102.792 73.625 102.792Z" fill="#3F3D56" />
		<path d="M73.625 101.089C74.2134 101.089 74.6903 100.465 74.6903 99.6954C74.6903 98.9257 74.2134 98.3018 73.625 98.3018C73.0366 98.3018 72.5596 98.9257 72.5596 99.6954C72.5596 100.465 73.0366 101.089 73.625 101.089Z" fill="#3F3D56" />
		<path d="M73.625 99.3844C74.2134 99.3844 74.6903 98.7604 74.6903 97.9907C74.6903 97.2211 74.2134 96.5971 73.625 96.5971C73.0366 96.5971 72.5596 97.2211 72.5596 97.9907C72.5596 98.7604 73.0366 99.3844 73.625 99.3844Z" fill="#3F3D56" />
		<path d="M73.625 97.6812C74.2134 97.6812 74.6903 97.0572 74.6903 96.2876C74.6903 95.5179 74.2134 94.8939 73.625 94.8939C73.0366 94.8939 72.5596 95.5179 72.5596 96.2876C72.5596 97.0572 73.0366 97.6812 73.625 97.6812Z" fill="#3F3D56" />
		<path d="M73.625 95.9781C74.2134 95.9781 74.6903 95.3541 74.6903 94.5844C74.6903 93.8147 74.2134 93.1908 73.625 93.1908C73.0366 93.1908 72.5596 93.8147 72.5596 94.5844C72.5596 95.3541 73.0366 95.9781 73.625 95.9781Z" fill="#3F3D56" />
		<path d="M69.6389 82.9243C69.4937 82.7414 69.3609 82.549 69.2415 82.3484L72.0403 81.8877L69.0169 81.9107C68.727 81.2791 68.5688 80.595 68.552 79.9002C68.5351 79.2053 68.66 78.5144 68.919 77.8694L72.979 79.9685L69.2358 77.2158C69.5864 76.6093 70.0581 76.0815 70.6216 75.6653C71.1852 75.2492 71.8284 74.9535 72.5112 74.7969C73.194 74.6402 73.9017 74.6258 74.5903 74.7547C75.2789 74.8836 75.9335 75.1529 76.5135 75.5459C77.0934 75.9389 77.5862 76.4471 77.961 77.0389C78.3359 77.6307 78.5849 78.2934 78.6924 78.9856C78.7999 79.6779 78.7637 80.3849 78.586 81.0625C78.4083 81.7401 78.0929 82.3739 77.6595 82.9243C77.8841 83.2128 78.0772 83.5246 78.2354 83.8543L74.6059 85.7418L78.4787 84.446C78.7507 85.2498 78.8179 86.1088 78.6744 86.9451C78.5308 87.7814 78.181 88.5688 77.6566 89.2359C78.2486 89.9883 78.6168 90.8921 78.7193 91.8439C78.8218 92.7957 78.6544 93.7571 78.2362 94.6183C77.818 95.4794 77.1659 96.2055 76.3545 96.7135C75.5431 97.2214 74.6051 97.4908 73.6478 97.4908C72.6904 97.4908 71.7524 97.2214 70.941 96.7135C70.1296 96.2055 69.4775 95.4794 69.0593 94.6183C68.6411 93.7571 68.4737 92.7957 68.5762 91.8439C68.6787 90.8921 69.047 89.9883 69.6389 89.2359C68.9319 88.3367 68.5476 87.2261 68.5476 86.0822C68.5476 84.9384 68.9319 83.8277 69.6389 82.9286V82.9243Z" fill="#F37A39" />
		<path opacity="0.1" d="M78.7479 86.0729C78.7499 87.2173 78.3653 88.3288 77.6566 89.2273C78.2486 89.9797 78.6168 90.8834 78.7193 91.8352C78.8218 92.7871 78.6544 93.7485 78.2362 94.6096C77.818 95.4708 77.1659 96.1969 76.3545 96.7048C75.5431 97.2128 74.6051 97.4822 73.6478 97.4822C72.6904 97.4822 71.7524 97.2128 70.941 96.7048C70.1296 96.1969 69.4775 95.4708 69.0593 94.6096C68.6411 93.7485 68.4737 92.7871 68.5762 91.8352C68.6787 90.8834 69.047 89.9797 69.6389 89.2273C68.955 88.3635 78.7479 85.5057 78.7479 86.0729Z" fill="black" />
		<path opacity="0.1" d="M11.8789 104.94C13.0028 103.816 11.702 100.693 8.97343 97.9642C6.24488 95.2356 3.12184 93.9348 1.99792 95.0587C0.874005 96.1826 2.17481 99.3057 4.90337 102.034C7.63192 104.763 10.755 106.064 11.8789 104.94Z" fill="#F37A39" />
		<path d="M7.43348 100.456C8.28665 100.456 8.97828 99.5499 8.97828 98.4328C8.97828 97.3156 8.28665 96.41 7.43348 96.41C6.5803 96.41 5.88867 97.3156 5.88867 98.4328C5.88867 99.5499 6.5803 100.456 7.43348 100.456Z" fill="#3F3D56" />
		<path d="M7.43348 97.9836C8.28665 97.9836 8.97828 97.0779 8.97828 95.9608C8.97828 94.8436 8.28665 93.938 7.43348 93.938C6.5803 93.938 5.88867 94.8436 5.88867 95.9608C5.88867 97.0779 6.5803 97.9836 7.43348 97.9836Z" fill="#3F3D56" />
		<path d="M7.43348 95.5116C8.28665 95.5116 8.97828 94.6059 8.97828 93.4888C8.97828 92.3716 8.28665 91.466 7.43348 91.466C6.5803 91.466 5.88867 92.3716 5.88867 93.4888C5.88867 94.6059 6.5803 95.5116 7.43348 95.5116Z" fill="#3F3D56" />
		<path d="M7.43348 93.0396C8.28665 93.0396 8.97828 92.134 8.97828 91.0169C8.97828 89.8997 8.28665 88.9941 7.43348 88.9941C6.5803 88.9941 5.88867 89.8997 5.88867 91.0169C5.88867 92.134 6.5803 93.0396 7.43348 93.0396Z" fill="#3F3D56" />
		<path d="M7.43348 90.5677C8.28665 90.5677 8.97828 89.662 8.97828 88.5449C8.97828 87.4277 8.28665 86.5221 7.43348 86.5221C6.5803 86.5221 5.88867 87.4277 5.88867 88.5449C5.88867 89.662 6.5803 90.5677 7.43348 90.5677Z" fill="#3F3D56" />
		<path d="M7.43348 88.0956C8.28665 88.0956 8.97828 87.19 8.97828 86.0728C8.97828 84.9557 8.28665 84.05 7.43348 84.05C6.5803 84.05 5.88867 84.9557 5.88867 86.0728C5.88867 87.19 6.5803 88.0956 7.43348 88.0956Z" fill="#3F3D56" />
		<path d="M7.43348 85.6237C8.28665 85.6237 8.97828 84.7181 8.97828 83.6009C8.97828 82.4838 8.28665 81.5781 7.43348 81.5781C6.5803 81.5781 5.88867 82.4838 5.88867 83.6009C5.88867 84.7181 6.5803 85.6237 7.43348 85.6237Z" fill="#3F3D56" />
		<path d="M13.2163 66.6844C13.4277 66.4159 13.6201 66.133 13.7922 65.8378L9.7322 65.1712L14.1233 65.2029C14.5445 64.2866 14.7746 63.294 14.7993 62.2858C14.8241 61.2776 14.643 60.2749 14.2673 59.339L8.37744 62.3955L13.8066 58.4017C13.298 57.5214 12.6136 56.7553 11.7959 56.1512C10.9782 55.5471 10.0448 55.1179 9.05396 54.8903C8.0631 54.6628 7.03599 54.6419 6.03667 54.8288C5.03736 55.0158 4.08727 55.4066 3.24564 55.9769C2.40402 56.5472 1.68891 57.2847 1.1449 58.1436C0.600889 59.0025 0.239644 59.9642 0.0836933 60.9688C-0.0722577 61.9734 -0.0195717 62.9994 0.238463 63.9827C0.496498 64.9661 0.954351 65.8858 1.58347 66.6844C1.25436 67.1023 0.971492 67.5546 0.739805 68.0334L6.00913 70.7688L0.394275 68.8828C2.24812e-05 70.0491 -0.0973108 71.2953 0.111077 72.5086C0.319464 73.722 0.827001 74.8643 1.58779 75.8323C0.72922 76.9238 0.195126 78.2349 0.0465737 79.6157C-0.101978 80.9965 0.141007 82.3912 0.747749 83.6404C1.35449 84.8895 2.3005 85.9428 3.47762 86.6797C4.65474 87.4166 6.01546 87.8074 7.4042 87.8074C8.79294 87.8074 10.1537 87.4166 11.3308 86.6797C12.5079 85.9428 13.4539 84.8895 14.0607 83.6404C14.6674 82.3912 14.9104 80.9965 14.7618 79.6157C14.6133 78.2349 14.0792 76.9238 13.2206 75.8323C14.2465 74.5278 14.8042 72.9164 14.8042 71.2569C14.8042 69.5973 14.2465 67.986 13.2206 66.6815L13.2163 66.6844Z" fill="#F37A39" />
		<path opacity="0.1" d="M1.0353e-05 71.2597C-0.00277188 72.9198 0.555286 74.532 1.58369 75.8351C0.725115 76.9267 0.19102 78.2378 0.0424682 79.6186C-0.106084 80.9993 0.136901 82.394 0.743644 83.6432C1.35039 84.8924 2.2964 85.9457 3.47352 86.6826C4.65063 87.4194 6.01135 87.8102 7.4001 87.8102C8.78884 87.8102 10.1496 87.4194 11.3267 86.6826C12.5038 85.9457 13.4498 84.8924 14.0565 83.6432C14.6633 82.394 14.9063 80.9993 14.7577 79.6186C14.6092 78.2378 14.0751 76.9267 13.2165 75.8351C14.2085 74.5768 1.0353e-05 70.429 1.0353e-05 71.2597Z" fill="black" />
	</g>
	<defs>
		<clipPath id="clip0">
			<rect width="133" height="108.512" fill="white" />
		</clipPath>
	</defs>
</svg>
