<svg width="148" height="82" viewBox="0 0 148 82" fill="none" xmlns="http://www.w3.org/2000/svg">
  <path d="M44.8988 81.4789H0.833001C0.583101 81.4789 0.416501 81.3956 0.249901 81.229C0.0833003 81.0624 0 80.8958 0 80.6459L0.0833 70.2334C0.0833 64.9022 2.8322 60.9871 7.66361 59.1545C9.24631 58.5714 12.6616 57.4052 12.9115 57.4052C15.9936 56.8221 17.6596 55.406 18.0761 53.3235C18.1594 52.907 18.4926 52.6571 18.8258 52.6571C19.2423 52.6571 19.6588 52.9903 19.6588 53.4068C19.6588 53.4901 19.6588 53.4901 19.6588 53.5734C19.3256 55.4893 17.9928 57.9883 13.328 58.9046C13.2447 58.9046 9.82941 60.0708 8.24671 60.6539C2.8322 62.7364 1.7493 67.068 1.666 70.3167V79.8962H44.1491L44.2324 70.4833C44.2324 67.2346 43.1495 62.903 37.735 60.8205C36.1523 60.2374 32.9035 59.0712 32.6536 59.0712C28.0721 58.0716 26.7393 55.5726 26.4061 53.6567C26.3228 53.2402 26.656 52.8237 27.0725 52.7404C27.489 52.6571 27.9055 52.9903 27.9888 53.4068C28.322 55.4893 29.988 56.9054 33.0701 57.5718C33.32 57.6551 36.7354 58.8213 38.3181 59.4044C43.1495 61.3203 45.8151 65.2354 45.8151 70.5666L45.7318 80.7292C45.7318 81.1457 45.3153 81.4789 44.8988 81.4789Z" fill="#F37A39"/>
  <path d="M22.9909 55.9059C20.0754 55.9059 17.2432 53.9067 15.1607 50.4081C13.2448 47.2427 12.0786 43.2443 12.0786 39.6624C12.0786 32.9984 16.1603 29 22.9909 29H23.0742C29.9048 29 33.9865 33.0817 33.9865 39.7457H33.1535H33.9865C33.9865 43.3276 32.8203 47.326 30.8211 50.4914C28.7386 53.99 25.9064 55.9059 22.9909 55.9059ZM23.0742 30.5827C20.242 30.5827 13.7446 31.499 13.7446 39.6624C13.7446 42.9944 14.7442 46.6596 16.5768 49.5751C18.4094 52.5739 20.7418 54.3232 23.0742 54.3232C25.3233 54.3232 27.739 52.6572 29.5716 49.6584C31.4042 46.7429 32.4871 43.0777 32.4871 39.7457C32.4871 31.499 25.9064 30.5827 23.0742 30.5827Z" fill="#F37A39"/>
  <path d="M26.3231 38.4961C22.2414 38.4961 19.909 36.6635 18.9094 35.5805C16.9102 37.4965 15.1609 37.7464 13.1617 37.7464C12.6619 37.7464 12.3287 37.4132 12.3287 36.9967C12.3287 36.5802 12.6619 36.1637 13.0784 36.1637C15.0776 36.0804 16.4937 35.9138 18.3263 33.8312C18.5762 33.5813 18.7428 33.498 18.9927 33.498C19.2426 33.498 19.4925 33.6646 19.5758 33.8312C19.7424 34.0811 23.1577 39.0792 32.404 35.4972C32.8205 35.3306 33.237 35.4972 33.4036 35.9138C33.5702 36.3303 33.4036 36.7468 32.9871 36.9134C30.4048 38.0796 28.239 38.4961 26.3231 38.4961ZM24.907 81.3956C24.8237 81.3956 24.7404 81.3956 24.6571 81.3123C24.2406 81.1457 24.074 80.7292 24.2406 80.3127L32.8205 58.2382C32.9871 57.8217 33.4036 57.6551 33.8201 57.7384C34.2366 57.905 34.4865 58.3215 34.3199 58.738L25.6567 80.8958C25.5734 81.229 25.2402 81.3956 24.907 81.3956ZM20.8253 81.3956C20.4921 81.3956 20.2422 81.229 20.0756 80.8958L11.7456 58.738C11.579 58.3215 11.7456 57.905 12.1621 57.7384C12.5786 57.5718 12.9951 57.7384 13.1617 58.1549L21.575 80.396C21.7416 80.8125 21.4917 81.229 21.0752 81.3956C20.9919 81.3123 20.9086 81.3956 20.8253 81.3956ZM9.66308 81.4789C9.24658 81.4789 8.83008 81.1457 8.83008 80.6459V71.6495C8.83008 71.233 9.16328 70.8165 9.66308 70.8165C10.0796 70.8165 10.4961 71.1497 10.4961 71.6495V80.7292C10.4128 81.1457 10.0796 81.4789 9.66308 81.4789ZM36.1525 81.3956C35.736 81.3956 35.3195 81.0624 35.3195 80.5626V71.6495C35.3195 71.233 35.6527 70.8165 36.1525 70.8165C36.6523 70.8165 36.9855 71.1497 36.9855 71.6495V80.6459C36.9855 81.0624 36.569 81.3956 36.1525 81.3956Z" fill="#F37A39"/>
  <path d="M19.0759 45.3267C17.3266 45.3267 15.8271 43.9106 15.8271 42.078C15.8271 40.3287 17.2433 38.9126 19.0759 38.9126C19.9089 38.9126 20.7419 39.2458 21.325 39.8289C21.9081 40.412 22.2413 41.245 22.2413 42.078C22.2413 42.911 21.9081 43.744 21.325 44.3271C20.7419 44.9935 19.9089 45.3267 19.0759 45.3267ZM19.0759 40.4953C18.1596 40.4953 17.4932 41.245 17.4932 42.078C17.4932 42.9943 18.2429 43.6607 19.0759 43.744C19.4924 43.744 19.9089 43.5774 20.2421 43.2442C20.5753 42.911 20.7419 42.4945 20.7419 42.078C20.7419 41.6615 20.5753 41.245 20.2421 40.9118C19.9089 40.6619 19.4924 40.4953 19.0759 40.4953ZM26.7395 45.41C24.9902 45.41 23.4908 43.9939 23.4908 42.1613C23.4908 40.412 24.9069 38.9959 26.7395 38.9959C28.4888 38.9959 29.9049 40.412 29.9049 42.2446C29.9882 43.9106 28.4888 45.41 26.7395 45.41ZM26.7395 40.5786C25.8232 40.5786 25.1568 41.3283 25.1568 42.1613C25.1568 43.0776 25.9065 43.744 26.7395 43.8273C27.6558 43.8273 28.3222 43.0776 28.3222 42.2446C28.4055 41.245 27.6558 40.5786 26.7395 40.5786Z" fill="#F37A39"/>
  <path d="M24.407 42.4114C24.2404 42.4114 24.0738 42.3281 23.9905 42.2448C23.3241 41.8283 22.4911 41.8283 21.908 42.2448C21.5748 42.4947 21.075 42.4114 20.8251 41.9949C20.5752 41.6617 20.6585 41.1619 21.075 40.912C22.2412 40.1623 23.7406 40.1623 24.9068 40.912C25.24 41.1619 25.4066 41.6617 25.1567 41.9949C24.9068 42.2448 24.6569 42.4114 24.407 42.4114Z" fill="#F37A39"/>
  <path d="M25.0737 63.1531H20.7421C20.4089 63.1531 20.0757 62.9032 19.9924 62.57L19.0761 58.9881C18.9928 58.7382 19.0761 58.4883 19.2427 58.3217C19.4093 58.1551 19.6592 57.9885 19.9091 57.9885H26.0733C26.3232 57.9885 26.5731 58.0718 26.7397 58.3217C26.9063 58.4883 26.9063 58.7382 26.9063 58.9881L25.99 62.57C25.7401 62.9032 25.4069 63.1531 25.0737 63.1531ZM21.4085 61.5704H24.4906L24.9904 59.6545H20.9087L21.4085 61.5704Z" fill="#F37A39"/>
  <path d="M19.0758 76.8144C18.9925 76.8144 18.9925 76.8144 18.9092 76.8144C18.4927 76.7311 18.1595 76.3146 18.2428 75.8981L20.4086 62.2369C20.4919 61.8204 20.9084 61.4872 21.3249 61.5705C21.7414 61.6538 22.0746 62.0703 21.9913 62.4868L19.8255 76.148C19.8255 76.5645 19.4923 76.8144 19.0758 76.8144ZM26.7394 76.8144C26.3229 76.8144 25.9897 76.4812 25.9897 76.0647L23.7406 62.4868C23.6573 62.0703 23.9905 61.6538 24.407 61.5705C24.8235 61.4872 25.24 61.8204 25.3233 62.2369L27.4891 75.8981C27.4891 75.9814 27.4891 75.9814 27.4891 76.0647C27.4891 76.4812 27.1559 76.8144 26.7394 76.8144Z" fill="#F37A39"/>
  <path d="M66.0503 30.0172H60.457V35.424H66.0503V30.0172Z" fill="#F37A39"/>
  <path d="M74.8136 30.0172H69.4067V35.424H74.8136V30.0172Z" fill="#F37A39"/>
  <path d="M65.8639 38.5936H60.457V44.1869H65.8639V38.5936Z" fill="#F37A39"/>
  <path d="M75 38.5936H69.4067V44.1869H75V38.5936Z" fill="#F37A39"/>
  <path d="M65.8639 47.5427H60.457V52.9496H65.8639V47.5427Z" fill="#F37A39"/>
  <path d="M75 47.5427H69.4067V52.9496H75V47.5427Z" fill="#F37A39"/>
  <path d="M65.8639 55.9326H60.457V61.5259H65.8639V55.9326Z" fill="#F37A39"/>
  <path d="M75 55.9326H69.4067V61.5259H75V55.9326Z" fill="#F37A39"/>
  <path d="M65.8639 64.882H60.457V70.2888H65.8639V64.882Z" fill="#F37A39"/>
  <path d="M75 64.882H69.4067V70.2888H75V64.882Z" fill="#F37A39"/>
  <path d="M147.713 21.4409H121.797V0H78.9155V21.4409H53V81.1024H147.713V21.4409ZM78.9155 77.7464H56.1695V24.7968H78.9155V77.7464H78.9155ZM107.068 77.9328H93.6444V58.3564H107.068V77.9328ZM90.4749 55.0004V77.9328H82.2714V3.16951H118.441L118.255 77.9328H110.424V55.0005H90.4749V55.0004ZM144.357 77.7464H121.797V24.7968H144.357V77.7464Z" fill="#F37A39"/>
  <path d="M131.306 30.0172H125.899V35.424H131.306V30.0172Z" fill="#F37A39"/>
  <path d="M140.255 30.0172H134.662V35.424H140.255V30.0172Z" fill="#F37A39"/>
  <path d="M131.306 38.5936H125.713V44.1869H131.306V38.5936Z" fill="#F37A39"/>
  <path d="M140.255 38.5936H134.848V44.1869H140.255V38.5936Z" fill="#F37A39"/>
  <path d="M131.306 47.5427H125.713V52.9496H131.306V47.5427Z" fill="#F37A39"/>
  <path d="M140.255 47.5427H134.848V52.9496H140.255V47.5427Z" fill="#F37A39"/>
  <path d="M131.306 55.9326H125.713V61.5259H131.306V55.9326Z" fill="#F37A39"/>
  <path d="M140.255 55.9326H134.848V61.5259H140.255V55.9326Z" fill="#F37A39"/>
  <path d="M131.306 64.882H125.713V70.2888H131.306V64.882Z" fill="#F37A39"/>
  <path d="M140.255 64.882H134.848V70.2888H140.255V64.882Z" fill="#F37A39"/>
  <path d="M92.1528 26.2883H86.5596V31.6952H92.1528V26.2883Z" fill="#F37A39"/>
  <path d="M113.78 26.2883H108.187V31.6952H113.78V26.2883Z" fill="#F37A39"/>
  <path d="M92.1528 34.8647H86.5596V40.458H92.1528V34.8647Z" fill="#F37A39"/>
  <path d="M113.78 34.8647H108.374V40.458H113.78V34.8647Z" fill="#F37A39"/>
  <path d="M92.1528 43.8138H86.5596V49.2207H92.1528V43.8138Z" fill="#F37A39"/>
  <path d="M113.78 43.8138H108.374V49.2207H113.78V43.8138Z" fill="#F37A39"/>
  <path d="M102.967 26.1021H97.3735V31.6953H102.967V26.1021Z" fill="#F37A39"/>
  <path d="M92.1528 17.5255H86.5596V22.9323H92.1528V17.5255Z" fill="#F37A39"/>
  <path d="M113.78 17.5255H108.187V22.9323H113.78V17.5255Z" fill="#F37A39"/>
  <path d="M102.967 17.5255H97.3735V22.9323H102.967V17.5255Z" fill="#F37A39"/>
  <path d="M92.1528 8.7627H86.5596V14.1695H92.1528V8.7627Z" fill="#F37A39"/>
  <path d="M113.78 8.7627H108.187V14.1695H113.78V8.7627Z" fill="#F37A39"/>
  <path d="M102.967 8.7627H97.3735V14.1695H102.967V8.7627Z" fill="#F37A39"/>
  <path d="M102.967 34.8647H97.3735V40.2716H102.967V34.8647Z" fill="#F37A39"/>
  <path d="M102.967 43.6274H97.3735V49.2207H102.967V43.6274Z" fill="#F37A39"/>
</svg>
