<svg width="152" height="87" viewBox="0 0 152 87" fill="none" xmlns="http://www.w3.org/2000/svg">
  <path d="M41.6912 40.1592C41.4052 40.0714 41.1085 40.0237 40.8095 40.0176L37.4386 39.991C37.0869 39.9827 36.7368 40.04 36.4061 40.16C35.887 40.3501 35.4376 40.6929 35.117 41.1432C34.7964 41.5935 34.6195 42.1303 34.6097 42.683C34.5832 43.8505 34.5314 45.9837 34.4513 49.8462C34.3026 57.2371 33.3717 70.2866 32.7947 76.0267C32.7648 76.3151 32.7951 76.6065 32.8837 76.8825C32.9723 77.1585 33.1172 77.4132 33.3093 77.6303C33.5014 77.8474 33.7365 78.0222 33.9997 78.1437C34.2629 78.2652 34.5484 78.3308 34.8383 78.3362L42.0941 78.4829C42.3852 78.4877 42.6741 78.4322 42.9427 78.3199C43.2113 78.2076 43.4537 78.041 43.6548 77.8305C43.8559 77.62 44.0113 77.3702 44.1112 77.0968C44.211 76.8234 44.2533 76.5322 44.2353 76.2417C43.8474 70.3494 43.3403 57.2297 43.4914 49.9276C43.5771 46.1856 43.6001 44.0621 43.6278 42.8752C43.6316 42.2763 43.4465 41.6915 43.0988 41.2039C42.7511 40.7163 42.2586 40.3508 41.6912 40.1592V40.1592Z" stroke="#F37A39" stroke-width="4.1875" stroke-linecap="round" stroke-linejoin="round"/>
  <path d="M56.3702 17.5171L50.0496 17.4526C49.9528 17.4512 49.8566 17.4696 49.7671 17.5066C49.6777 17.5436 49.5967 17.5985 49.5291 17.6679C49.4586 17.7341 49.4019 17.8136 49.3624 17.9018C49.3228 17.99 49.3011 18.0852 49.2985 18.1818C49.2958 18.4109 49.2403 18.6362 49.1366 18.8404C49.0328 19.0446 48.8834 19.2222 48.7 19.3594C48.2347 19.7218 47.6602 20.0261 47.0994 20.0271C45.8168 20.0211 45.3457 18.0162 43.9798 17.7666C42.4574 17.5202 40.9192 17.3849 39.3772 17.3619C38.0763 17.3482 33.058 17.3927 26.9323 19.864C24.9749 20.6499 23.1899 21.8106 21.6774 23.2808C19.2035 25.6828 18.3734 28.6338 18.2949 29.9412C18.2278 30.9767 18.4235 32.3279 18.4235 32.3279C18.6379 31.8848 18.8794 31.4553 19.1467 31.042C19.7151 30.1914 20.4058 29.4291 21.1966 28.78C22.775 27.4827 25.2008 26.4589 26.8654 26.2835C29.5724 26.0264 31.812 27.0237 33.9599 29.0311C35.5564 30.5251 35.9721 33.9645 36.1102 36.964C36.1223 37.2278 36.2355 37.4768 36.4263 37.6594C36.6171 37.8419 36.8709 37.9439 37.135 37.9443L41.0644 38.0013C41.3365 38.0036 41.5989 37.8999 41.7958 37.7121C41.9927 37.5243 42.1088 37.2671 42.1194 36.9952C42.1957 34.457 42.443 31.4882 42.8105 30.0389C43.178 28.5895 43.7609 27.7153 44.0775 27.3331C44.7076 26.5905 45.554 26.0633 46.4984 25.8252C46.6635 25.782 46.834 25.7627 47.0045 25.7679C48.209 25.7949 49.1496 26.8369 49.1217 28.0423L49.1062 28.4021C49.104 28.4975 49.1209 28.5925 49.1558 28.6814C49.1906 28.7702 49.2428 28.8513 49.3094 28.9198C49.3759 28.9883 49.4554 29.0429 49.5432 29.0804C49.631 29.1179 49.7254 29.1375 49.8209 29.1381L56.1414 29.2026C56.2381 29.2033 56.334 29.1845 56.4232 29.1474C56.5125 29.1102 56.5934 29.0555 56.661 28.9863C56.8028 28.8526 56.886 28.6682 56.8925 28.4734L57.0994 18.2682C57.0969 18.0735 57.0199 17.8871 56.8843 17.7475C56.7487 17.6078 56.5647 17.5253 56.3702 17.5171V17.5171Z" stroke="#F37A39" stroke-width="4.1875" stroke-linecap="round" stroke-linejoin="round"/>
  <path fill-rule="evenodd" clip-rule="evenodd" d="M74.0527 10.8725L78.9239 10.9135L80.9612 23.794C81.047 24.3364 81.002 24.8914 80.8298 25.4128C80.6576 25.9342 80.3633 26.4069 79.9713 26.7914L79.7994 26.9605C79.4762 27.2778 79.2188 27.6557 79.0418 28.0726C78.8648 28.4895 78.7718 28.9371 78.7681 29.39L78.5337 57.19L81.4902 58.6983C82.0596 58.9895 82.5367 59.4334 82.8681 59.9804C83.1995 60.5274 83.372 61.1559 83.3664 61.7954L83.2286 78.1432C83.2207 79.0565 82.8505 79.9293 82.1992 80.5697C81.5479 81.2101 80.669 81.5656 79.7556 81.5581L72.0299 81.4929C71.1165 81.4851 70.2437 81.1148 69.6033 80.4635C68.9629 79.8123 68.6074 78.9333 68.615 78.0199L68.7528 61.6722C68.758 61.0327 68.9411 60.4072 69.2816 59.8659C69.6222 59.3245 70.1067 58.8887 70.681 58.6072L73.6625 57.1489L73.8969 29.349C73.9047 28.4355 73.5494 27.5563 72.9091 26.9048L72.7376 26.7305C72.353 26.3394 72.0673 25.8621 71.9044 25.3383C71.7415 24.8146 71.706 24.2595 71.8009 23.7192L74.0527 10.8725ZM77.7814 62.0552C77.7853 61.5979 77.6073 61.1577 77.2866 60.8316C76.966 60.5055 76.5289 60.3201 76.0716 60.3163C75.6142 60.3124 75.1741 60.4904 74.848 60.811C74.5218 61.1317 74.3365 61.5688 74.3326 62.0261L74.2094 76.6397C74.2055 77.0971 74.3835 77.5372 74.7042 77.8633C75.0248 78.1895 75.4619 78.3748 75.9193 78.3787C76.3766 78.3825 76.8167 78.2046 77.1429 77.8839C77.469 77.5632 77.6544 77.1262 77.6582 76.6688L77.7814 62.0552Z" fill="#F37A39"/>
  <path d="M118.967 20.1058C118.903 20.0873 118.83 20.0779 118.762 20.0823C118.306 20.0807 117.936 20.4485 117.934 20.9043L117.879 36.6094L111.69 36.5878L111.745 20.8735C111.746 20.8006 111.737 20.7368 111.723 20.6683C111.611 20.2259 111.165 19.96 110.723 20.0724C103.597 21.8796 98.32 28.3283 98.2885 36.0259C98.2671 42.1329 101.566 47.4859 106.483 50.3607L106.39 77.0676C106.389 77.3411 106.62 77.5561 106.903 77.5571L122.371 77.6112C122.654 77.6122 122.891 77.3943 122.888 77.1253L122.981 50.4275C127.927 47.5873 131.268 42.262 131.289 36.1459C131.312 28.4483 126.08 21.9628 118.967 20.1058ZM126.645 36.1251C126.627 41.4209 123.147 45.8933 118.357 47.4079L118.354 48.21L118.345 48.21L118.262 73.1897L111.043 73.1644L111.116 52.1908C111.116 52.1908 111.121 52.1954 111.125 52.1908L111.142 47.3781C106.362 45.8301 102.914 41.3334 102.933 36.0376C102.938 34.3288 103.312 32.6413 104.029 31.0903C104.746 29.5394 105.79 28.1615 107.089 27.0509L107.042 39.1602C107.04 39.7076 107.256 40.2334 107.642 40.6218C108.027 41.0103 108.552 41.2297 109.099 41.232L120.447 41.2717C120.995 41.2733 121.52 41.0575 121.909 40.6717C122.297 40.286 122.517 39.7618 122.519 39.2143L122.561 27.1096C125.083 29.3106 126.662 32.5566 126.645 36.1251Z" fill="#F37A39"/>
</svg>
